<svg width="24" height="24" viewBox="0 0 24 24" fill="none" xmlns="http://www.w3.org/2000/svg">
<path d="M1.75098 10C1.75098 5.58 5.33498 2 9.75598 2H14.122C18.612 2 22.251 5.64 22.251 10.13C22.251 13.09 20.644 15.81 18.055 17.24L10.001 21.7V18.01H9.93398C5.44398 18.11 1.75098 14.5 1.75098 10ZM9.75598 4C6.43898 4 3.75098 6.69 3.75098 10C3.75098 13.37 6.52098 16.08 9.88898 16.01L10.24 16H12.001V18.3L17.088 15.49C19.039 14.41 20.251 12.36 20.251 10.13C20.251 6.74 17.507 4 14.122 4H9.75598Z" fill="white"/>
</svg>
