<svg width="24" height="24" viewBox="0 0 24 24" fill="none" xmlns="http://www.w3.org/2000/svg">
<path d="M18.3599 5.63999C16.4099 3.67999 13.2499 3.67999 11.2899 5.63999L9.87986 7.04999L8.45986 5.63999L9.87986 4.21999C12.6099 1.48999 17.0399 1.48999 19.7799 4.21999C22.5099 6.95999 22.5099 11.39 19.7799 14.12L18.3599 15.54L16.9499 14.12L18.3599 12.71C20.3199 10.75 20.3199 7.58999 18.3599 5.63999ZM16.2399 9.16999L9.16986 16.24L7.75986 14.83L14.8299 7.75999L16.2399 9.16999ZM4.21986 9.87999L5.63986 8.45999L7.04986 9.87999L5.63986 11.29C3.67986 13.25 3.67986 16.41 5.63986 18.36C7.58986 20.32 10.7499 20.32 12.7099 18.36L14.1199 16.95L15.5399 18.36L14.1199 19.78C11.3899 22.51 6.95986 22.51 4.21986 19.78C1.48986 17.04 1.48986 12.61 4.21986 9.87999Z" fill="white"/>
</svg>
