<svg width="800" height="800" viewBox="0 0 800 800" fill="none" xmlns="http://www.w3.org/2000/svg">
<path d="M66.666 416.67L125.052 365.583C155.428 339.007 201.209 340.53 229.749 369.07L372.739 512.06C395.646 534.97 431.706 538.093 458.213 519.463L468.153 512.48C506.293 485.673 557.896 488.78 592.549 519.967L699.999 616.67" stroke="#F2613F" stroke-width="50" stroke-linecap="round"/>
<path d="M500 183.333H616.667M616.667 183.333H733.333M616.667 183.333V300M616.667 183.333V66.6667" stroke="#F2613F" stroke-width="50" stroke-linecap="round"/>
<path d="M733.333 400C733.333 557.133 733.333 635.703 684.516 684.517C635.703 733.333 557.133 733.333 399.999 733.333C242.864 733.333 164.297 733.333 115.482 684.517C66.666 635.703 66.666 557.133 66.666 400C66.666 362.39 66.666 329.278 67.3354 300M399.999 66.6667C242.864 66.6667 164.297 66.6667 115.482 115.482C101.321 129.643 91.268 146.307 84.1314 166.667" stroke="#F2613F" stroke-width="50" stroke-linecap="round"/>
</svg>
