<svg width="800" height="800" viewBox="0 0 800 800" fill="none" xmlns="http://www.w3.org/2000/svg">
<path d="M733.333 406.797V457.5C733.333 587.527 733.333 652.543 694.279 692.937C655.229 733.333 592.373 733.333 466.666 733.333H333.333C207.625 733.333 144.771 733.333 105.718 692.937C66.666 652.543 66.666 587.527 66.666 457.5V406.797C66.666 330.516 66.666 292.376 83.9727 260.758C101.279 229.14 132.898 209.517 196.134 170.271L262.8 128.896C329.646 87.4095 363.069 66.6665 399.999 66.6665C436.929 66.6665 470.353 87.4095 537.199 128.896L603.866 170.271C667.103 209.517 698.719 229.14 716.026 260.758" stroke="#F2613F" stroke-width="50" stroke-linecap="round"/>
<path d="M500 600H300" stroke="#F2613F" stroke-width="50" stroke-linecap="round"/>
</svg>
