<svg width="24" height="24" viewBox="0 0 24 24" fill="none" xmlns="http://www.w3.org/2000/svg">
<path d="M16.6968 5.50003C15.4748 5.44003 14.0178 6.01003 12.8068 7.66003L12.0018 8.75003L11.1958 7.66003C9.98382 6.01003 8.52582 5.44003 7.30382 5.50003C6.06082 5.57003 4.95482 6.28003 4.39382 7.41003C3.84182 8.53003 3.76082 10.19 4.87282 12.23C5.94682 14.2 8.12982 16.5 12.0018 18.84C15.8718 16.5 18.0538 14.2 19.1278 12.23C20.2388 10.19 20.1578 8.53003 19.6048 7.41003C19.0438 6.28003 17.9388 5.57003 16.6968 5.50003ZM20.8838 13.19C19.5328 15.67 16.8828 18.31 12.5048 20.86L12.0018 21.16L11.4978 20.86C7.11882 18.31 4.46882 15.67 3.11582 13.19C1.75582 10.69 1.70582 8.33003 2.60182 6.52003C3.48882 4.73003 5.24882 3.61003 7.20282 3.51003C8.85382 3.42003 10.5708 4.07003 12.0008 5.52003C13.4298 4.07003 15.1468 3.42003 16.7968 3.51003C18.7508 3.61003 20.5108 4.73003 21.3978 6.52003C22.2938 8.33003 22.2438 10.69 20.8838 13.19Z" fill="white"/>
</svg>
