<svg width="24" height="24" viewBox="0 0 24 24" fill="none" xmlns="http://www.w3.org/2000/svg">
<path d="M17.796 14.5C16.574 14.44 13.3058 17.8806 11.7432 19.18L11.5 18.6193C10.288 16.9693 8.62018 10.78 7.39818 10.84C6.15518 10.91 5.561 4.37 5 5.5C2.5 6.5 5.388 6.96 6.5 9C7.574 10.97 7.528 16.34 11.4 18.68C15.27 16.34 17.452 14.04 18.526 12.07C19.637 10.03 20.835 8.66422 20.282 7.54422C19.721 6.41422 19.038 14.57 17.796 14.5ZM20.282 13.03C18.931 15.51 16.281 18.15 11.903 20.7L11.4 21L10.896 20.7C6.517 18.15 3.867 15.51 2.514 13.03C1.154 10.53 1.104 8.17 2 6.36C2.887 4.57 4.647 3.45 6.601 3.35C8.252 3.26 9.969 3.91 11.399 5.36C12.828 3.91 14.545 3.26 16.195 3.35C18.149 3.45 19.909 4.57 20.796 6.36C21.692 8.17 21.642 10.53 20.282 13.03Z" fill="#EC2525"/>
<rect x="3.54443" y="5.40497" width="3.4021" height="15.8431" transform="rotate(-24.3914 3.54443 5.40497)" fill="#EC2525"/>
<rect x="17.7861" y="7" width="3.4021" height="4.91365" transform="rotate(7.45686 17.7861 7)" fill="#EC2525"/>
</svg>
