<svg width="800" height="800" viewBox="0 0 800 800" fill="none" xmlns="http://www.w3.org/2000/svg">
<path fill-rule="evenodd" clip-rule="evenodd" d="M477.561 248.992C477.526 289.261 444.857 321.88 404.591 321.856C364.323 321.832 331.692 289.175 331.705 248.907C331.718 208.638 364.364 176 404.633 176C423.983 176.009 442.537 183.703 456.214 197.392C469.891 211.081 477.567 229.642 477.561 248.992Z" stroke="#F2613F" stroke-width="48" stroke-linecap="round" stroke-linejoin="round"/>
<path fill-rule="evenodd" clip-rule="evenodd" d="M479.898 429.408H329.498C276.951 431.059 235.209 474.131 235.209 526.704C235.209 579.277 276.951 622.349 329.498 624H479.898C532.442 622.349 574.182 579.277 574.182 526.704C574.182 474.131 532.442 431.059 479.898 429.408Z" stroke="#F2613F" stroke-width="48" stroke-linecap="round" stroke-linejoin="round"/>
<path fill-rule="evenodd" clip-rule="evenodd" d="M662.009 304.769C661.99 335.569 637.011 360.525 606.211 360.512C575.411 360.502 550.451 335.526 550.457 304.726C550.463 273.926 575.433 248.961 606.233 248.961C621.03 248.961 635.222 254.842 645.683 265.309C656.143 275.776 662.015 289.971 662.009 304.769Z" stroke="#F2613F" stroke-width="48" stroke-linecap="round" stroke-linejoin="round"/>
<path fill-rule="evenodd" clip-rule="evenodd" d="M138.682 304.768C138.682 335.572 163.653 360.544 194.458 360.544C225.262 360.544 250.234 335.572 250.234 304.768C250.234 273.964 225.262 248.992 194.458 248.992C163.653 248.992 138.682 273.964 138.682 304.768Z" stroke="#F2613F" stroke-width="48" stroke-linecap="round" stroke-linejoin="round"/>
<path d="M621.978 426.848C608.723 426.848 597.978 437.594 597.978 450.848C597.978 464.102 608.723 474.848 621.978 474.848V426.848ZM663.802 450.848L664.298 426.854C664.131 426.848 663.968 426.848 663.802 426.848V450.848ZM663.802 599.68V623.68C663.968 623.68 664.131 623.677 664.298 623.674L663.802 599.68ZM621.978 575.68C608.723 575.68 597.978 586.426 597.978 599.68C597.978 612.934 608.723 623.68 621.978 623.68V575.68ZM178.713 474.848C191.968 474.848 202.713 464.102 202.713 450.848C202.713 437.594 191.968 426.848 178.713 426.848V474.848ZM136.889 450.848V426.848C136.723 426.848 136.557 426.848 136.391 426.854L136.889 450.848ZM136.889 599.68L136.391 623.674C136.557 623.677 136.723 623.68 136.889 623.68V599.68ZM178.713 623.68C191.968 623.68 202.713 612.934 202.713 599.68C202.713 586.426 191.968 575.68 178.713 575.68V623.68ZM621.978 474.848H663.802V426.848H621.978V474.848ZM663.302 474.842C690.742 475.411 712.688 497.818 712.688 525.264H760.688C760.688 471.696 717.853 427.965 664.298 426.854L663.302 474.842ZM712.688 525.264C712.688 552.71 690.742 575.117 663.302 575.686L664.298 623.674C717.853 622.563 760.688 578.832 760.688 525.264H712.688ZM663.802 575.68H621.978V623.68H663.802V575.68ZM178.713 426.848H136.889V474.848H178.713V426.848ZM136.391 426.854C82.8355 427.965 40 471.696 40 525.264H88C88 497.818 109.947 475.411 137.386 474.842L136.391 426.854ZM40 525.264C40 578.832 82.8355 622.563 136.391 623.674L137.386 575.686C109.947 575.117 88 552.71 88 525.264H40ZM136.889 623.68H178.713V575.68H136.889V623.68Z" fill="#F2613F"/>
</svg>
