<svg width="24" height="24" viewBox="0 0 24 24" fill="none" xmlns="http://www.w3.org/2000/svg">
<path d="M10.25 3.75C6.66 3.75 3.75 6.66 3.75 10.25C3.75 13.84 6.66 16.75 10.25 16.75C12.045 16.75 13.669 16.024 14.846 14.846C16.024 13.669 16.75 12.045 16.75 10.25C16.75 6.66 13.84 3.75 10.25 3.75ZM1.75 10.25C1.75 5.556 5.556 1.75 10.25 1.75C14.944 1.75 18.75 5.556 18.75 10.25C18.75 12.236 18.068 14.065 16.926 15.512L21.707 20.293L20.293 21.707L15.512 16.926C14.065 18.068 12.236 18.75 10.25 18.75C5.556 18.75 1.75 14.944 1.75 10.25Z" fill="white"/>
</svg>
