<svg width="293" height="430" viewBox="0 0 293 430" fill="none" xmlns="http://www.w3.org/2000/svg">
<path d="M10 122.376L10 158.614C10 160.016 10.9363 161.153 12.0913 161.153H56.6273C57.7822 161.153 58.7185 160.016 58.7185 158.614V122.376C58.7185 120.974 57.7822 119.836 56.6273 119.836H12.0913C10.9363 119.836 10 120.974 10 122.376Z" fill="#292A2E"/>
<path d="M57.4027 122.979V158.011C57.4027 158.445 57.2608 158.861 57.0082 159.168C56.7556 159.474 56.4129 159.647 56.0557 159.647H12.5876C12.4086 159.647 12.2313 159.604 12.066 159.521C11.9006 159.437 11.7504 159.316 11.6238 159.162C11.4972 159.008 11.3969 158.826 11.3284 158.625C11.2599 158.424 11.2246 158.209 11.2246 157.991V122.999C11.2246 122.781 11.2599 122.566 11.3284 122.365C11.3969 122.164 11.4972 121.982 11.6238 121.828C11.7504 121.674 11.9006 121.552 12.066 121.469C12.2313 121.386 12.4086 121.343 12.5876 121.343H56.0557C56.4129 121.343 56.7556 121.516 57.0082 121.822C57.2608 122.129 57.4027 122.545 57.4027 122.979Z" fill="white"/>
<path d="M32.8432 128.678L23.6485 148.019C23.4949 148.342 23.414 148.709 23.4141 149.082C23.4141 149.456 23.495 149.822 23.6487 150.146C23.8024 150.469 24.0235 150.737 24.2897 150.924C24.5559 151.111 24.8579 151.209 25.1652 151.209H43.554C43.8614 151.209 44.1633 151.111 44.4295 150.924C44.6957 150.737 44.9168 150.469 45.0705 150.146C45.2242 149.822 45.3051 149.456 45.3052 149.082C45.3052 148.709 45.2243 148.342 45.0707 148.019L35.876 128.678C35.7223 128.355 35.5013 128.086 35.2351 127.9C34.9689 127.713 34.667 127.615 34.3596 127.615C34.0523 127.615 33.7503 127.713 33.4841 127.9C33.218 128.086 32.9969 128.355 32.8432 128.678Z" fill="#367CFF"/>
<path d="M33.1406 145.502C33.1503 145.211 33.2301 144.93 33.3702 144.694C33.5103 144.458 33.7045 144.277 33.9287 144.174C34.1528 144.071 34.397 144.05 34.6308 144.114C34.8647 144.178 35.0779 144.324 35.2439 144.533C35.41 144.743 35.5216 145.008 35.5648 145.294C35.608 145.581 35.5809 145.876 35.487 146.144C35.393 146.412 35.2363 146.64 35.0363 146.801C34.8364 146.961 34.6019 147.047 34.3622 147.047C34.1976 147.047 34.0346 147.006 33.8832 146.928C33.7317 146.849 33.5949 146.735 33.4808 146.59C33.3667 146.446 33.2778 146.275 33.2193 146.088C33.1609 145.901 33.1341 145.702 33.1406 145.502ZM33.4162 137.867L33.3471 135.644H35.3754L35.3086 137.867L35.0266 142.98H33.6988L33.4162 137.867Z" fill="white"/>
<path d="M47.3178 1.06104H0.319336V48.0582H47.3178V1.06104Z" fill="white"/>
<path d="M47.3178 48.4466H0.319715C0.234921 48.4466 0.153596 48.4057 0.0936373 48.3329C0.0336791 48.26 0 48.1613 0 48.0583V1.06114C0 0.958159 0.0336791 0.859396 0.0936373 0.786578C0.153596 0.71376 0.234921 0.672852 0.319715 0.672852H47.3178C47.4026 0.672852 47.484 0.71376 47.5439 0.786578C47.6039 0.859396 47.6376 0.958159 47.6376 1.06114V48.0583C47.6376 48.1613 47.6039 48.26 47.5439 48.3329C47.484 48.4057 47.4026 48.4466 47.3178 48.4466ZM0.63943 47.67H46.9981V1.44943H0.63943V47.67Z" fill="#292A2E"/>
<path d="M45.6006 3.08203H10.8584V15.7705H45.6006V3.08203Z" fill="#367CFF"/>
<g opacity="0.69">
<path d="M45.6006 3.08203H10.8584V15.7705H45.6006V3.08203Z" fill="white"/>
</g>
<path d="M45.601 15.9815H10.8588C10.836 15.9816 10.8133 15.9761 10.7922 15.9655C10.771 15.955 10.7518 15.9394 10.7356 15.9198C10.7194 15.9002 10.7066 15.8769 10.6978 15.8512C10.6891 15.8256 10.6846 15.7981 10.6846 15.7703V3.08027C10.6845 3.05247 10.689 3.02492 10.6978 2.99923C10.7065 2.97353 10.7193 2.95018 10.7355 2.93052C10.7517 2.91086 10.7709 2.89527 10.7921 2.88466C10.8133 2.87404 10.8359 2.8686 10.8588 2.86865H45.601C45.6472 2.86865 45.6915 2.89095 45.7242 2.93063C45.7569 2.97032 45.7752 3.02415 45.7752 3.08027V15.7703C45.7752 15.7981 45.7707 15.8256 45.762 15.8512C45.7532 15.8769 45.7404 15.9002 45.7242 15.9198C45.708 15.9394 45.6888 15.955 45.6676 15.9655C45.6465 15.9761 45.6239 15.9816 45.601 15.9815ZM11.0347 15.5587H45.4268V3.29344H11.0347V15.5587Z" fill="#292A2E"/>
<path d="M16.1365 12.0289C17.3203 12.0289 18.2799 10.8635 18.2799 9.42583C18.2799 7.98819 17.3203 6.82275 16.1365 6.82275C14.9528 6.82275 13.9932 7.98819 13.9932 9.42583C13.9932 10.8635 14.9528 12.0289 16.1365 12.0289Z" fill="white"/>
<path d="M16.136 12.2402C15.6776 12.2402 15.2295 12.0752 14.8484 11.7659C14.4673 11.4566 14.1702 11.017 13.9948 10.5027C13.8194 9.98836 13.7735 9.42242 13.8629 8.87642C13.9523 8.33042 14.173 7.82889 14.4972 7.43525C14.8213 7.0416 15.2343 6.77353 15.6838 6.66492C16.1334 6.55632 16.5994 6.61206 17.0229 6.8251C17.4464 7.03813 17.8083 7.3989 18.063 7.86178C18.3177 8.32465 18.4536 8.86884 18.4536 9.42554C18.4529 10.1718 18.2085 10.8872 17.774 11.4149C17.3395 11.9426 16.7504 12.2394 16.136 12.2402ZM16.136 7.03446C15.7465 7.03446 15.3658 7.17473 15.042 7.43752C14.7181 7.70032 14.4657 8.07384 14.3167 8.51084C14.1677 8.94785 14.1287 9.42871 14.2047 9.89262C14.2807 10.3565 14.4683 10.7826 14.7437 11.1171C15.0191 11.4515 15.37 11.6793 15.752 11.7715C16.134 11.8637 16.5299 11.8163 16.8897 11.6352C17.2496 11.4542 17.5571 11.1476 17.7734 10.7543C17.9897 10.3609 18.1052 9.89854 18.1051 9.42554C18.1045 8.79154 17.8968 8.18372 17.5277 7.73545C17.1585 7.28718 16.658 7.03508 16.136 7.03446Z" fill="#292A2E"/>
<path d="M35.8769 9.37636H21.0453C20.9991 9.37636 20.9548 9.35406 20.9221 9.31438C20.8894 9.27469 20.8711 9.22087 20.8711 9.16474C20.8711 9.10862 20.8894 9.05479 20.9221 9.01511C20.9548 8.97542 20.9991 8.95313 21.0453 8.95312H35.8769C35.8998 8.95312 35.9225 8.9586 35.9436 8.96923C35.9647 8.97987 35.9839 8.99546 36.0001 9.01511C36.0163 9.03476 36.0292 9.05808 36.0379 9.08376C36.0467 9.10943 36.0512 9.13695 36.0512 9.16474C36.0512 9.19253 36.0467 9.22005 36.0379 9.24572C36.0292 9.2714 36.0163 9.29473 36.0001 9.31438C35.9839 9.33403 35.9647 9.34962 35.9436 9.36025C35.9225 9.37088 35.8998 9.37636 35.8769 9.37636Z" fill="#292A2E"/>
<path d="M39.7938 9.37636H39.2406C39.1944 9.37636 39.1501 9.35406 39.1175 9.31438C39.0848 9.27469 39.0664 9.22087 39.0664 9.16474C39.0664 9.10862 39.0848 9.05479 39.1175 9.01511C39.1501 8.97542 39.1944 8.95313 39.2406 8.95312H39.7938C39.84 8.95313 39.8843 8.97542 39.917 9.01511C39.9497 9.05479 39.968 9.10862 39.968 9.16474C39.968 9.22087 39.9497 9.27469 39.917 9.31438C39.8843 9.35406 39.84 9.37636 39.7938 9.37636Z" fill="#292A2E"/>
<path d="M37.852 9.37636H37.2992C37.253 9.37636 37.2087 9.35406 37.176 9.31438C37.1434 9.27469 37.125 9.22087 37.125 9.16474C37.125 9.10862 37.1434 9.05479 37.176 9.01511C37.2087 8.97542 37.253 8.95313 37.2992 8.95312H37.852C37.8749 8.95312 37.8976 8.9586 37.9187 8.96923C37.9398 8.97987 37.9591 8.99546 37.9752 9.01511C37.9914 9.03476 38.0043 9.05808 38.013 9.08376C38.0218 9.10943 38.0263 9.13695 38.0263 9.16474C38.0263 9.19253 38.0218 9.22005 38.013 9.24572C38.0043 9.2714 37.9914 9.29473 37.9752 9.31438C37.9591 9.33403 37.9398 9.34962 37.9187 9.36025C37.8976 9.37088 37.8749 9.37636 37.852 9.37636Z" fill="#292A2E"/>
<path d="M41.867 9.37636H41.3139C41.2677 9.37636 41.2234 9.35406 41.1907 9.31438C41.158 9.27469 41.1396 9.22087 41.1396 9.16474C41.1396 9.10862 41.158 9.05479 41.1907 9.01511C41.2234 8.97542 41.2677 8.95313 41.3139 8.95312H41.867C41.8899 8.95312 41.9125 8.9586 41.9337 8.96923C41.9548 8.97987 41.974 8.99546 41.9902 9.01511C42.0064 9.03476 42.0192 9.05808 42.028 9.08376C42.0367 9.10943 42.0412 9.13695 42.0412 9.16474C42.0412 9.19253 42.0367 9.22005 42.028 9.24572C42.0192 9.2714 42.0064 9.29473 41.9902 9.31438C41.974 9.33403 41.9548 9.34962 41.9337 9.36025C41.9125 9.37088 41.8899 9.37636 41.867 9.37636Z" fill="#292A2E"/>
<path d="M45.6006 17.9912H10.8584V30.6797H45.6006V17.9912Z" fill="#367CFF"/>
<g opacity="0.69">
<path d="M45.6006 17.9912H10.8584V30.6797H45.6006V17.9912Z" fill="white"/>
</g>
<path d="M45.601 30.8909H10.8588C10.836 30.8909 10.8133 30.8855 10.7922 30.8749C10.771 30.8643 10.7518 30.8488 10.7356 30.8292C10.7194 30.8095 10.7066 30.7862 10.6978 30.7606C10.6891 30.7349 10.6846 30.7074 10.6846 30.6797V17.9904C10.6845 17.9626 10.689 17.9351 10.6978 17.9094C10.7065 17.8837 10.7193 17.8603 10.7355 17.8407C10.7517 17.821 10.7709 17.8054 10.7921 17.7948C10.8133 17.7842 10.8359 17.7788 10.8588 17.7788H45.601C45.6239 17.7788 45.6465 17.7843 45.6677 17.7949C45.6888 17.8056 45.708 17.8211 45.7242 17.8408C45.7404 17.8604 45.7532 17.8838 45.762 17.9094C45.7707 17.9351 45.7752 17.9626 45.7752 17.9904V30.6797C45.7752 30.7074 45.7707 30.7349 45.762 30.7606C45.7532 30.7862 45.7404 30.8095 45.7242 30.8292C45.708 30.8488 45.6888 30.8643 45.6676 30.8749C45.6465 30.8855 45.6239 30.8909 45.601 30.8909ZM11.0347 30.468H45.4268V18.2028H11.0347V30.468Z" fill="#292A2E"/>
<path d="M16.1365 26.9386C17.3203 26.9386 18.2799 25.7731 18.2799 24.3355C18.2799 22.8979 17.3203 21.7324 16.1365 21.7324C14.9528 21.7324 13.9932 22.8979 13.9932 24.3355C13.9932 25.7731 14.9528 26.9386 16.1365 26.9386Z" fill="white"/>
<path d="M16.136 27.1499C15.6776 27.1499 15.2295 26.9848 14.8483 26.6755C14.4672 26.3662 14.1701 25.9266 13.9947 25.4123C13.8193 24.8979 13.7735 24.332 13.8629 23.7859C13.9524 23.2399 14.1731 22.7384 14.4973 22.3448C14.8214 21.9511 15.2344 21.6831 15.684 21.5745C16.1336 21.466 16.5996 21.5218 17.0231 21.7349C17.4466 21.948 17.8085 22.3088 18.0632 22.7717C18.3178 23.2347 18.4536 23.7789 18.4536 24.3356C18.4528 25.0818 18.2084 25.7971 17.7739 26.3247C17.3394 26.8523 16.7504 27.1491 16.136 27.1499ZM16.136 21.9441C15.7465 21.9441 15.3658 22.0844 15.042 22.3472C14.7182 22.6099 14.4658 22.9834 14.3167 23.4204C14.1677 23.8574 14.1287 24.3382 14.2047 24.8021C14.2807 25.266 14.4682 25.6922 14.7436 26.0266C15.019 26.3611 15.3698 26.5888 15.7518 26.6811C16.1338 26.7734 16.5297 26.726 16.8895 26.545C17.2493 26.364 17.5569 26.0575 17.7732 25.6642C17.9896 25.2709 18.1051 24.8086 18.1051 24.3356C18.1046 23.7015 17.897 23.0936 17.5278 22.6453C17.1586 22.1969 16.6581 21.9447 16.136 21.9441Z" fill="#292A2E"/>
<path d="M35.8769 24.2855H21.0453C20.9991 24.2855 20.9548 24.2632 20.9221 24.2236C20.8894 24.1839 20.8711 24.13 20.8711 24.0739C20.8711 24.0178 20.8894 23.964 20.9221 23.9243C20.9548 23.8846 20.9991 23.8623 21.0453 23.8623H35.8769C35.9231 23.8623 35.9675 23.8846 36.0001 23.9243C36.0328 23.964 36.0512 24.0178 36.0512 24.0739C36.0512 24.13 36.0328 24.1839 36.0001 24.2236C35.9675 24.2632 35.9231 24.2855 35.8769 24.2855Z" fill="#292A2E"/>
<path d="M39.7938 24.2855H39.2406C39.1944 24.2855 39.1501 24.2632 39.1175 24.2236C39.0848 24.1839 39.0664 24.13 39.0664 24.0739C39.0664 24.0178 39.0848 23.964 39.1175 23.9243C39.1501 23.8846 39.1944 23.8623 39.2406 23.8623H39.7938C39.84 23.8623 39.8843 23.8846 39.917 23.9243C39.9497 23.964 39.968 24.0178 39.968 24.0739C39.968 24.13 39.9497 24.1839 39.917 24.2236C39.8843 24.2632 39.84 24.2855 39.7938 24.2855Z" fill="#292A2E"/>
<path d="M37.852 24.2855H37.2992C37.253 24.2855 37.2087 24.2632 37.176 24.2236C37.1434 24.1839 37.125 24.13 37.125 24.0739C37.125 24.0178 37.1434 23.964 37.176 23.9243C37.2087 23.8846 37.253 23.8623 37.2992 23.8623H37.852C37.8982 23.8623 37.9426 23.8846 37.9752 23.9243C38.0079 23.964 38.0263 24.0178 38.0263 24.0739C38.0263 24.13 38.0079 24.1839 37.9752 24.2236C37.9426 24.2632 37.8982 24.2855 37.852 24.2855Z" fill="#292A2E"/>
<path d="M41.867 24.2855H41.3139C41.2677 24.2855 41.2234 24.2632 41.1907 24.2236C41.158 24.1839 41.1396 24.13 41.1396 24.0739C41.1396 24.0178 41.158 23.964 41.1907 23.9243C41.2234 23.8846 41.2677 23.8623 41.3139 23.8623H41.867C41.9132 23.8623 41.9575 23.8846 41.9902 23.9243C42.0229 23.964 42.0412 24.0178 42.0412 24.0739C42.0412 24.13 42.0229 24.1839 41.9902 24.2236C41.9575 24.2632 41.9132 24.2855 41.867 24.2855Z" fill="#292A2E"/>
<path d="M45.6006 32.9004H10.8584V45.5889H45.6006V32.9004Z" fill="#367CFF"/>
<g opacity="0.69">
<path d="M45.6006 32.9004H10.8584V45.5889H45.6006V32.9004Z" fill="white"/>
</g>
<path d="M45.601 45.8007H10.8588C10.8359 45.8007 10.8133 45.7953 10.7921 45.7847C10.7709 45.774 10.7517 45.7585 10.7355 45.7388C10.7193 45.7191 10.7065 45.6958 10.6978 45.6701C10.689 45.6444 10.6845 45.6168 10.6846 45.589V32.9006C10.6845 32.8728 10.689 32.8452 10.6978 32.8195C10.7065 32.7938 10.7193 32.7705 10.7355 32.7508C10.7517 32.7312 10.7709 32.7156 10.7921 32.705C10.8133 32.6944 10.8359 32.6889 10.8588 32.689H45.601C45.6472 32.689 45.6915 32.7113 45.7242 32.7509C45.7569 32.7906 45.7752 32.8445 45.7752 32.9006V45.589C45.7752 45.6452 45.7569 45.699 45.7242 45.7387C45.6915 45.7784 45.6472 45.8007 45.601 45.8007ZM11.0347 45.3774H45.4268V33.1122H11.0347V45.3774Z" fill="#292A2E"/>
<path d="M16.1365 41.8478C17.3203 41.8478 18.2799 40.6823 18.2799 39.2447C18.2799 37.807 17.3203 36.6416 16.1365 36.6416C14.9528 36.6416 13.9932 37.807 13.9932 39.2447C13.9932 40.6823 14.9528 41.8478 16.1365 41.8478Z" fill="white"/>
<path d="M16.136 42.0591C15.6776 42.0591 15.2295 41.894 14.8483 41.5847C14.4672 41.2754 14.1701 40.8358 13.9947 40.3214C13.8193 39.8071 13.7735 39.2411 13.8629 38.6951C13.9524 38.1491 14.1731 37.6476 14.4973 37.254C14.8214 36.8603 15.2344 36.5923 15.684 36.4837C16.1336 36.3752 16.5996 36.431 17.0231 36.6441C17.4466 36.8572 17.8085 37.218 18.0632 37.6809C18.3178 38.1438 18.4536 38.6881 18.4536 39.2448C18.4528 39.991 18.2084 40.7063 17.7739 41.2339C17.3394 41.7615 16.7504 42.0583 16.136 42.0591ZM16.136 36.8533C15.7465 36.8533 15.3658 36.9936 15.042 37.2563C14.7182 37.5191 14.4658 37.8926 14.3167 38.3296C14.1677 38.7666 14.1287 39.2474 14.2047 39.7113C14.2807 40.1752 14.4682 40.6013 14.7436 40.9358C15.019 41.2702 15.3698 41.498 15.7518 41.5903C16.1338 41.6826 16.5297 41.6352 16.8895 41.4542C17.2493 41.2732 17.5569 40.9667 17.7732 40.5734C17.9896 40.1801 18.1051 39.7178 18.1051 39.2448C18.1046 38.6107 17.897 38.0028 17.5278 37.5544C17.1586 37.1061 16.6581 36.8539 16.136 36.8533Z" fill="#292A2E"/>
<path d="M35.8769 39.1952H21.0453C20.9991 39.1952 20.9548 39.1729 20.9221 39.1332C20.8894 39.0935 20.8711 39.0397 20.8711 38.9836C20.8711 38.9275 20.8894 38.8736 20.9221 38.834C20.9548 38.7943 20.9991 38.772 21.0453 38.772H35.8769C35.9231 38.772 35.9675 38.7943 36.0001 38.834C36.0328 38.8736 36.0512 38.9275 36.0512 38.9836C36.0512 39.0397 36.0328 39.0935 36.0001 39.1332C35.9675 39.1729 35.9231 39.1952 35.8769 39.1952Z" fill="#292A2E"/>
<path d="M39.7938 39.1952H39.2406C39.1944 39.1952 39.1501 39.1729 39.1175 39.1332C39.0848 39.0935 39.0664 39.0397 39.0664 38.9836C39.0664 38.9275 39.0848 38.8736 39.1175 38.834C39.1501 38.7943 39.1944 38.772 39.2406 38.772H39.7938C39.84 38.772 39.8843 38.7943 39.917 38.834C39.9497 38.8736 39.968 38.9275 39.968 38.9836C39.968 39.0397 39.9497 39.0935 39.917 39.1332C39.8843 39.1729 39.84 39.1952 39.7938 39.1952Z" fill="#292A2E"/>
<path d="M37.852 39.1952H37.2992C37.253 39.1952 37.2087 39.1729 37.176 39.1332C37.1434 39.0935 37.125 39.0397 37.125 38.9836C37.125 38.9275 37.1434 38.8736 37.176 38.834C37.2087 38.7943 37.253 38.772 37.2992 38.772H37.852C37.8982 38.772 37.9426 38.7943 37.9752 38.834C38.0079 38.8736 38.0263 38.9275 38.0263 38.9836C38.0263 39.0397 38.0079 39.0935 37.9752 39.1332C37.9426 39.1729 37.8982 39.1952 37.852 39.1952Z" fill="#292A2E"/>
<path d="M41.867 39.1952H41.3139C41.2677 39.1952 41.2234 39.1729 41.1907 39.1332C41.158 39.0935 41.1396 39.0397 41.1396 38.9836C41.1396 38.9275 41.158 38.8736 41.1907 38.834C41.2234 38.7943 41.2677 38.772 41.3139 38.772H41.867C41.9132 38.772 41.9575 38.7943 41.9902 38.834C42.0229 38.8736 42.0412 38.9275 42.0412 38.9836C42.0412 39.0397 42.0229 39.0935 41.9902 39.1332C41.9575 39.1729 41.9132 39.1952 41.867 39.1952Z" fill="#292A2E"/>
<path d="M9.03456 48.4466C8.94977 48.4466 8.86844 48.4057 8.80848 48.3329C8.74852 48.26 8.71484 48.1613 8.71484 48.0583V1.06114C8.71484 0.958159 8.74852 0.859396 8.80848 0.786578C8.86844 0.71376 8.94977 0.672852 9.03456 0.672852C9.11935 0.672852 9.20067 0.71376 9.26063 0.786578C9.32059 0.859396 9.35427 0.958159 9.35427 1.06114V48.0583C9.35427 48.1613 9.32059 48.26 9.26063 48.3329C9.20067 48.4057 9.11935 48.4466 9.03456 48.4466Z" fill="#292A2E"/>
<path d="M138.482 96.4858C138.482 96.4858 128.944 134.229 123.586 153.814C123.332 154.742 123.279 155.723 123.43 156.678C123.581 157.633 123.932 158.535 124.456 159.313C124.979 160.091 125.661 160.723 126.445 161.158C127.229 161.593 128.095 161.819 128.973 161.818H162.445C163.89 161.817 165.281 161.202 166.327 160.1C167.373 158.998 167.995 157.494 168.064 155.899L170.321 103.358L138.482 96.4858Z" fill="#0F1011"/>
<path d="M189.78 180.444C189.78 180.444 180.044 174.756 182.194 145.491L162.087 141.395C162.087 141.395 164.367 167.628 154.203 175.968L189.78 180.444Z" fill="#E98862"/>
<path opacity="0.15" d="M158.317 170.48L175.007 156.352L161.89 156.213C161.513 161.173 160.302 166.011 158.317 170.48Z" fill="black"/>
<path d="M193.591 134.134C192.207 143.013 187.827 151.425 180.737 154.299C173.011 157.696 164.649 158.952 156.382 157.958C134.373 155.988 138.681 100.717 149.121 89.9721C159.562 79.2269 190.231 85.9948 193.976 103.946C195.913 113.23 194.909 125.689 193.591 134.134Z" fill="#E98862"/>
<path d="M162.102 127.326C163.109 127.326 163.925 126.425 163.925 125.313C163.925 124.2 163.109 123.299 162.102 123.299C161.095 123.299 160.278 124.2 160.278 125.313C160.278 126.425 161.095 127.326 162.102 127.326Z" fill="#0F1011"/>
<path d="M147.716 126.038C148.723 126.038 149.539 125.137 149.539 124.024C149.539 122.912 148.723 122.011 147.716 122.011C146.709 122.011 145.893 122.912 145.893 124.024C145.893 125.137 146.709 126.038 147.716 126.038Z" fill="#0F1011"/>
<path d="M149.383 118.718L144.553 118.788" stroke="#0F1011" stroke-width="1.362" stroke-miterlimit="10" stroke-linecap="round"/>
<path d="M166.032 120.714L161.27 119.454" stroke="#0F1011" stroke-width="1.362" stroke-miterlimit="10" stroke-linecap="round"/>
<path d="M161.271 141.172C161.271 141.172 154.542 141.962 149.82 140.147C149.82 140.147 149.862 145.042 155.188 145.52C160.515 145.998 161.271 141.172 161.271 141.172Z" fill="white"/>
<g opacity="0.15">
<path d="M154.015 136.49C154.167 136.491 154.314 136.432 154.429 136.324C154.544 136.215 154.62 136.064 154.642 135.898C154.665 135.733 154.632 135.564 154.551 135.423C154.47 135.282 154.345 135.178 154.2 135.13L150.492 133.879L153.08 127.496C153.118 127.412 153.14 127.321 153.145 127.227C153.151 127.133 153.138 127.04 153.11 126.952C153.081 126.863 153.037 126.782 152.979 126.714C152.921 126.645 152.852 126.59 152.774 126.551C152.697 126.513 152.613 126.492 152.528 126.491C152.444 126.489 152.359 126.507 152.281 126.542C152.202 126.577 152.131 126.63 152.071 126.696C152.011 126.763 151.964 126.842 151.933 126.929L148.762 134.747L153.832 136.462C153.891 136.482 153.953 136.491 154.015 136.49Z" fill="black"/>
</g>
<path d="M137.335 101.011C137.335 101.011 140.558 72.2257 182.321 79.2952C192.732 81.0574 207.487 90.0349 209.878 119.458C210.97 132.955 215.183 145.68 218.397 153.735C218.777 154.681 218.938 155.716 218.864 156.748C218.79 157.779 218.484 158.774 217.974 159.642C217.463 160.51 216.765 161.223 215.941 161.717C215.118 162.211 214.196 162.47 213.259 162.471L183.902 162.482C183.165 162.483 182.434 162.324 181.752 162.014C181.07 161.703 180.45 161.248 179.927 160.673C179.405 160.098 178.99 159.415 178.706 158.663C178.423 157.91 178.276 157.104 178.275 156.289C178.275 156.198 178.275 156.106 178.275 156.011C178.486 150.493 178.653 141.15 178.368 126.869C176.842 118.719 180.907 112.972 175.006 114.845C153.093 121.79 138.981 101.476 137.335 101.011Z" fill="#0F1011"/>
<path d="M171.314 133.983C171.149 136.24 171.801 138.477 173.129 140.202C174.457 141.927 176.351 142.999 178.394 143.182C180.438 143.365 182.463 142.644 184.025 141.178C185.588 139.712 186.558 137.62 186.724 135.363C186.92 133.148 186.311 130.937 185.032 129.217C183.752 127.497 181.907 126.409 179.901 126.191C179.816 126.183 179.73 126.174 179.65 126.169C174.134 125.967 171.66 129.283 171.314 133.983Z" fill="#E98862"/>
<path d="M114.331 381.389C111.94 380.947 85.0117 375.865 85.0117 375.865" stroke="#E98862" stroke-width="21" stroke-miterlimit="10"/>
<path d="M67.3972 423.375C67.2831 424.15 67.3147 424.942 67.4903 425.702C67.6659 426.463 67.9817 427.175 68.4178 427.795C68.8539 428.414 69.401 428.928 70.025 429.304C70.6489 429.679 71.3364 429.909 72.0443 429.978C73.0253 430.073 74.0107 429.858 74.8844 429.356C75.7581 428.854 76.4837 428.086 76.9757 427.144L92.2167 395.521C92.5098 394.908 92.6796 394.233 92.7143 393.541C92.7491 392.849 92.648 392.157 92.418 391.512C90.2219 386.371 89.5779 380.588 90.5808 375.013C91.5228 370.701 93.5434 366.768 96.412 363.663C96.6903 363.395 96.8938 363.045 96.9987 362.654C97.1036 362.263 97.1055 361.847 97.0043 361.455C96.9031 361.063 96.7028 360.711 96.427 360.439C96.1512 360.168 95.8112 359.989 95.4468 359.924L80.6135 357.179C80.176 357.098 79.7282 357.113 79.296 357.224C78.8638 357.335 78.4556 357.539 78.095 357.824C77.7343 358.109 77.4282 358.471 77.1942 358.887C76.9602 359.303 76.803 359.767 76.7315 360.25L67.3972 423.375Z" fill="#C1D8ED"/>
<path d="M195.646 317.974C206.845 318.488 218.239 318.849 229.64 319.16L246.772 319.577L263.886 319.916L265.591 319.951C272.659 320.098 279.414 323.199 284.493 328.629C289.573 334.06 292.6 341.415 292.963 349.212C293.326 357.009 290.999 364.668 286.451 370.646C281.903 376.623 275.472 380.473 268.455 381.421L99.334 404.1L92.4434 348.9L260.809 320.196L265.378 381.699L248.003 382.938L230.638 384.097C219.044 384.838 207.443 385.532 195.636 386.067L195.646 317.974Z" fill="#868686"/>
<path d="M215.3 364.934C217.637 365.628 240.215 369.253 240.215 369.253" stroke="#E98862" stroke-width="21" stroke-miterlimit="10"/>
<path d="M267.473 408.778C267.718 409.514 267.823 410.299 267.782 411.082C267.74 411.866 267.552 412.632 267.231 413.331C266.909 414.031 266.46 414.65 265.912 415.15C265.364 415.649 264.728 416.019 264.045 416.235C263.098 416.535 262.094 416.53 261.149 416.22C260.205 415.91 259.361 415.309 258.716 414.487L238.317 386.634C237.925 386.094 237.644 385.466 237.492 384.795C237.34 384.123 237.321 383.423 237.436 382.743C238.708 377.235 238.346 371.423 236.404 366.159C234.738 362.123 232.079 358.685 228.728 356.238C228.41 356.033 228.15 355.732 227.98 355.37C227.81 355.008 227.737 354.6 227.769 354.194C227.801 353.788 227.937 353.4 228.161 353.076C228.385 352.752 228.688 352.505 229.034 352.364L243.128 346.56C243.543 346.389 243.986 346.311 244.429 346.329C244.872 346.347 245.308 346.461 245.711 346.666C246.114 346.87 246.477 347.161 246.778 347.52C247.079 347.88 247.313 348.302 247.466 348.762L267.473 408.778Z" fill="#C1D8ED"/>
<path d="M158.095 381.066C151.008 380.4 143.924 379.919 136.841 379.469C129.759 379.052 122.676 378.635 115.597 378.357L104.975 377.904L94.3573 377.566C87.2779 377.306 80.201 377.199 73.1229 377.049L75.5766 320.892C88.8257 322.939 102.092 324.818 115.354 326.746C128.616 328.673 141.895 330.445 155.169 332.248L175.094 334.842L195.031 337.311C208.33 338.888 221.629 340.457 234.959 341.748L229.109 397.1C215.869 394.968 202.6 393.112 189.33 391.263L169.413 388.595L149.484 386.049C136.19 384.427 122.898 382.78 109.595 381.278C96.2914 379.776 82.9857 378.236 69.665 376.857C63.2776 376.194 57.3524 372.892 53.0747 367.612C48.797 362.332 46.4824 355.462 46.5937 348.378C46.705 341.294 49.2341 334.517 53.6751 329.404C58.116 324.29 64.1414 321.217 70.5457 320.799L72.1212 320.701C79.188 320.243 86.2561 319.827 93.3204 319.258L103.918 318.458L114.515 317.542C121.579 316.954 128.641 316.226 135.703 315.503C142.764 314.743 149.825 313.952 156.882 312.978L158.095 381.066Z" fill="#868686"/>
<path d="M221.36 309.448L225.085 378.523L117.51 377.128L125.63 315.974L221.36 309.448Z" fill="#868686"/>
<path d="M54.7071 180.262C54.7071 180.262 54.5183 163.57 43.7155 164.439C36.8991 164.986 4.51701 163.327 4.03507 166.584C2.84216 174.645 32.4621 176.615 35.1512 184.125L54.7071 180.262Z" fill="#E98862"/>
<path d="M259.171 295.899L228.655 195.686C227.416 190.808 225.006 186.39 221.68 182.901C215.929 176.55 206.001 172.45 193.896 172.436C192.99 180.232 150.131 180.26 149.804 172.617C148.168 172.645 146.897 172.672 146.104 172.714C134.268 173.278 127.266 176.896 123.311 182.666L82.918 226.073L55.9769 170.504L32.6826 184.282L67.9161 256.935C68.8825 258.928 70.255 260.645 71.9254 261.952C73.5957 263.259 75.5182 264.12 77.5411 264.466C79.564 264.812 81.6321 264.634 83.5822 263.946C85.5323 263.259 87.311 262.08 88.7781 260.503L120.829 226.059C122.087 235.053 122.847 244.123 123.104 253.219C123.595 298.329 112.559 306.834 117.995 320.62C123.268 334.003 226.867 339.561 228.251 316.02C228.266 315.772 228.267 315.526 228.275 315.28L245.753 315.868C245.893 315.868 246.033 315.868 246.172 315.868C248.349 315.869 250.495 315.297 252.432 314.2C254.37 313.103 256.042 311.512 257.313 309.56C258.583 307.607 259.415 305.349 259.738 302.972C260.062 300.594 259.868 298.165 259.173 295.887L259.171 295.899ZM226.882 284.921L220.625 284.709C218.319 276.299 217.156 267.556 217.175 258.768C217.175 257.1 217.263 255.45 217.409 253.812L226.882 284.921Z" fill="#367CFF"/>
<path d="M149.804 172.621C150.131 180.265 153.893 191.507 165.508 192.355C180.985 193.481 192.99 180.237 193.896 172.44H193.858C178.62 172.44 158.688 172.468 149.804 172.621Z" fill="#E98862"/>
<path d="M185.573 210.806L190.02 284.014C190.072 284.877 189.963 285.743 189.7 286.558C189.437 287.372 189.025 288.119 188.49 288.75C187.955 289.382 187.309 289.886 186.59 290.23C185.872 290.574 185.097 290.752 184.314 290.752H91.7288C90.314 290.752 88.9493 290.173 87.8987 289.126C86.8481 288.08 86.1862 286.64 86.0411 285.086L79.1894 211.877C79.1072 210.998 79.1931 210.109 79.4415 209.268C79.6899 208.428 80.0954 207.654 80.6316 206.998C81.1679 206.341 81.823 205.816 82.5546 205.457C83.2861 205.098 84.0778 204.912 84.8784 204.912H179.868C181.318 204.912 182.715 205.521 183.774 206.615C184.833 207.709 185.476 209.207 185.573 210.806Z" fill="#9EBCEA"/>
<path d="M99.4639 290.754H196.741C198.945 290.754 200.732 288.781 200.732 286.346C200.732 283.912 198.945 281.938 196.741 281.938H99.4639C97.2595 281.938 95.4725 283.912 95.4725 286.346C95.4725 288.781 97.2595 290.754 99.4639 290.754Z" fill="#9EBCEA"/>
<path d="M132.153 257.563C137.018 257.563 140.961 253.208 140.961 247.835C140.961 242.462 137.018 238.107 132.153 238.107C127.288 238.107 123.345 242.462 123.345 247.835C123.345 253.208 127.288 257.563 132.153 257.563Z" fill="white"/>
<path d="M144.843 300.052C150.493 303.903 159.239 305.723 166.864 306.39L167.292 291.048C163.706 290.935 158.194 290.518 152.796 290.756C150.357 288.559 148.953 287.906 146.449 285.142C143.784 282.197 136.79 280.43 135.469 285.142C134.148 289.853 139.886 296.662 144.843 300.052Z" fill="#E98862"/>
<path d="M49.0001 26.8364L97 26.8364L97 142.836L57 142.836" stroke="white"/>
</svg>
