<svg width="1280" height="173" viewBox="0 0 1280 173" fill="none" xmlns="http://www.w3.org/2000/svg">
<path fill-rule="evenodd" clip-rule="evenodd" d="M0 33.2692L14.9333 43.25C30.9333 53.2308 60.8 73.1923 91.7333 86.5C121.6 99.8077 152.533 106.462 182.4 93.1538C213.333 79.8462 244.267 46.5769 274.133 26.6154C305.067 6.65384 334.933 0 365.867 0C395.733 0 426.667 6.65385 457.6 23.2885C487.467 39.9231 518.4 66.5385 548.267 86.5C579.2 106.462 609.067 119.769 640 113.115C670.933 106.462 700.8 79.8462 731.733 79.8462C761.6 79.8462 792.533 106.462 822.4 106.462C853.333 106.462 884.267 79.8462 914.133 66.5385C945.067 53.2308 974.933 53.2308 1005.87 63.2115C1035.73 73.1923 1066.67 93.1538 1097.6 99.8077C1127.47 106.462 1158.4 99.8077 1188.27 86.5C1219.2 73.1923 1249.07 53.2308 1265.07 43.25L1280 33.2692V173H1265.07C1249.07 173 1219.2 173 1188.27 173C1158.4 173 1127.47 173 1097.6 173C1066.67 173 1035.73 173 1005.87 173C974.933 173 945.067 173 914.133 173C884.267 173 853.333 173 822.4 173C792.533 173 761.6 173 731.733 173C700.8 173 670.933 173 640 173C609.067 173 579.2 173 548.267 173C518.4 173 487.467 173 457.6 173C426.667 173 395.733 173 365.867 173C334.933 173 305.067 173 274.133 173C244.267 173 213.333 173 182.4 173C152.533 173 121.6 173 91.7333 173C60.8 173 30.9333 173 14.9333 173H0V33.2692Z" fill="#367CFF"/>
</svg>
